<mxfile host="app.diagrams.net" modified="2021-03-31T14:36:07.580Z" agent="5.0 (X11; Linux x86_64) AppleWebKit/537.36 (KHTML, like Gecko) Chrome/88.0.4324.182 Safari/537.36" etag="SzsMj65oT643JA3WiWxI" version="14.1.8" type="github">
  <diagram id="OFiO3F5bblJHQWOL2J2h" name="Page-1">
    <mxGraphModel dx="868" dy="479" grid="1" gridSize="10" guides="1" tooltips="1" connect="1" arrows="1" fold="1" page="1" pageScale="1" pageWidth="850" pageHeight="1100" math="0" shadow="0">
      <root>
        <mxCell id="0" />
        <mxCell id="1" parent="0" />
        <mxCell id="3yWPxnJXm0sR8mxQk0uN-3" value="" style="edgeStyle=orthogonalEdgeStyle;rounded=0;orthogonalLoop=1;jettySize=auto;html=1;" parent="1" source="3yWPxnJXm0sR8mxQk0uN-2" target="kU9xpbZdvzaiUae52Pu4-1" edge="1">
          <mxGeometry relative="1" as="geometry" />
        </mxCell>
        <mxCell id="3yWPxnJXm0sR8mxQk0uN-2" value="מרקסיזם כתאוריה" style="whiteSpace=wrap;html=1;" parent="1" vertex="1">
          <mxGeometry x="360" y="145" width="120" height="60" as="geometry" />
        </mxCell>
        <mxCell id="kU9xpbZdvzaiUae52Pu4-1" value="" style="shape=parallelogram;perimeter=parallelogramPerimeter;whiteSpace=wrap;html=1;fixedSize=1;" parent="1" vertex="1">
          <mxGeometry x="260" y="260" width="120" height="60" as="geometry" />
        </mxCell>
        <mxCell id="kU9xpbZdvzaiUae52Pu4-6" value="" style="shape=table;startSize=0;container=1;collapsible=1;childLayout=tableLayout;fixedRows=1;rowLines=0;fontStyle=0;align=center;resizeLast=1;strokeColor=none;fillColor=none;" parent="1" vertex="1">
          <mxGeometry x="311" y="20" width="180" height="30" as="geometry" />
        </mxCell>
        <mxCell id="kU9xpbZdvzaiUae52Pu4-7" value="" style="shape=partialRectangle;collapsible=0;dropTarget=0;pointerEvents=0;fillColor=none;top=0;left=0;bottom=1;right=0;points=[[0,0.5],[1,0.5]];portConstraint=eastwest;" parent="kU9xpbZdvzaiUae52Pu4-6" vertex="1">
          <mxGeometry width="180" height="30" as="geometry" />
        </mxCell>
        <mxCell id="kU9xpbZdvzaiUae52Pu4-8" value="8" style="shape=partialRectangle;connectable=0;fillColor=none;top=0;left=0;bottom=0;right=0;fontStyle=1;overflow=hidden;" parent="kU9xpbZdvzaiUae52Pu4-7" vertex="1">
          <mxGeometry width="30" height="30" as="geometry" />
        </mxCell>
        <mxCell id="kU9xpbZdvzaiUae52Pu4-9" value="ניאו-מרקסיזם  הרצאה מס&#39;" style="shape=partialRectangle;connectable=0;fillColor=none;top=0;left=0;bottom=0;right=0;align=center;spacingLeft=6;fontStyle=5;overflow=hidden;textDirection=rtl;" parent="kU9xpbZdvzaiUae52Pu4-7" vertex="1">
          <mxGeometry x="30" width="150" height="30" as="geometry" />
        </mxCell>
        <mxCell id="kU9xpbZdvzaiUae52Pu4-13" value="" style="group" parent="1" vertex="1" connectable="0">
          <mxGeometry x="110" y="75" width="150" height="70" as="geometry" />
        </mxCell>
        <mxCell id="3yWPxnJXm0sR8mxQk0uN-1" value="" style="triangle;whiteSpace=wrap;html=1;" parent="kU9xpbZdvzaiUae52Pu4-13" vertex="1">
          <mxGeometry x="120" width="30" height="70" as="geometry" />
        </mxCell>
        <mxCell id="kU9xpbZdvzaiUae52Pu4-10" value="מתדולוגיה קומונלית" style="rounded=0;whiteSpace=wrap;html=1;align=center;" parent="kU9xpbZdvzaiUae52Pu4-13" vertex="1">
          <mxGeometry y="5" width="120" height="60" as="geometry" />
        </mxCell>
        <mxCell id="kU9xpbZdvzaiUae52Pu4-20" value="" style="edgeStyle=orthogonalEdgeStyle;rounded=0;orthogonalLoop=1;jettySize=auto;html=1;exitX=0;exitY=1;exitDx=0;exitDy=0;entryX=0.417;entryY=0;entryDx=0;entryDy=0;entryPerimeter=0;" parent="1" target="kU9xpbZdvzaiUae52Pu4-16" edge="1">
          <mxGeometry relative="1" as="geometry">
            <mxPoint x="260" y="110" as="sourcePoint" />
            <Array as="points">
              <mxPoint x="580" y="110" />
              <mxPoint x="580" y="110" />
            </Array>
          </mxGeometry>
        </mxCell>
        <mxCell id="kU9xpbZdvzaiUae52Pu4-16" value="חשיבה קומונלית" style="rounded=0;whiteSpace=wrap;html=1;align=center;" parent="1" vertex="1">
          <mxGeometry x="560" y="145" width="120" height="60" as="geometry" />
        </mxCell>
        <mxCell id="kU9xpbZdvzaiUae52Pu4-18" value="" style="edgeStyle=orthogonalEdgeStyle;rounded=0;orthogonalLoop=1;jettySize=auto;html=1;" parent="1" source="kU9xpbZdvzaiUae52Pu4-16" target="kU9xpbZdvzaiUae52Pu4-17" edge="1">
          <mxGeometry relative="1" as="geometry" />
        </mxCell>
        <mxCell id="kU9xpbZdvzaiUae52Pu4-17" value="ספרו של קסלר-&lt;br&gt;חשכה בשעת צהריים" style="shape=parallelogram;perimeter=parallelogramPerimeter;whiteSpace=wrap;html=1;fixedSize=1;" parent="1" vertex="1">
          <mxGeometry x="510" y="250" width="140" height="60" as="geometry" />
        </mxCell>
        <mxCell id="kU9xpbZdvzaiUae52Pu4-19" value="" style="edgeStyle=orthogonalEdgeStyle;rounded=0;orthogonalLoop=1;jettySize=auto;html=1;entryX=0.5;entryY=0;entryDx=0;entryDy=0;" parent="1" target="3yWPxnJXm0sR8mxQk0uN-2" edge="1">
          <mxGeometry relative="1" as="geometry">
            <mxPoint x="260" y="110" as="sourcePoint" />
            <mxPoint x="420" y="110" as="targetPoint" />
            <Array as="points">
              <mxPoint x="420" y="110" />
            </Array>
          </mxGeometry>
        </mxCell>
        <mxCell id="kU9xpbZdvzaiUae52Pu4-22" value="ניתן לומר שלא היו השפעות של תרבות המזרח על חשיבתו של ניטשה, על פי&amp;nbsp; &amp;nbsp; &amp;nbsp; הנגיודיות של תפיסות האינדיבדואל&amp;nbsp;" style="shape=note;whiteSpace=wrap;html=1;backgroundOutline=1;darkOpacity=0.05;align=center;" parent="1" vertex="1">
          <mxGeometry x="640" y="30" width="220" height="70" as="geometry" />
        </mxCell>
        <mxCell id="kU9xpbZdvzaiUae52Pu4-24" value="דיאלקטיקה פנימית נרחבת" style="swimlane;align=center;" parent="1" vertex="1">
          <mxGeometry x="470" y="310" width="200" height="200" as="geometry">
            <mxRectangle x="470" y="310" width="180" height="23" as="alternateBounds" />
          </mxGeometry>
        </mxCell>
        <mxCell id="kU9xpbZdvzaiUae52Pu4-25" value="Text" style="text;html=1;align=center;verticalAlign=middle;resizable=0;points=[];autosize=1;" parent="kU9xpbZdvzaiUae52Pu4-24" vertex="1">
          <mxGeometry x="160" y="30" width="40" height="20" as="geometry" />
        </mxCell>
      </root>
    </mxGraphModel>
  </diagram>
</mxfile>
